<svg width="640" height="320" viewBox="0 0 640 320" fill="none" xmlns="http://www.w3.org/2000/svg">
<g clip-path="url(#clip0)">
<rect width="640" height="320" fill="#F0EEE6"/>
<path d="M114.193 -177V129.483Z" fill="black"/>
<path d="M114.193 -177V129.483" stroke="white" stroke-width="4" stroke-linecap="round" stroke-dasharray="0.01 10"/>
<path d="M135.911 134.208C135.287 128.772 132.684 123.755 128.6 120.113C124.516 116.471 119.235 114.458 113.763 114.458C108.291 114.458 103.01 116.471 98.9256 120.113C94.8414 123.755 92.2392 128.772 91.6147 134.208C106.276 131.732 121.249 131.732 135.911 134.208" fill="#FED340"/>
<path opacity="0.8" d="M204.516 172.733L69.4512 144.79C92.3791 136.74 117.067 135.088 140.863 140.011C164.659 144.934 186.665 156.247 204.516 172.733Z" fill="#FED340"/>
<path opacity="0.8" d="M199.459 168.293L76.7794 142.452C60.0078 147.277 44.3424 155.337 30.6665 166.179V166.179L232.082 208.606C223.942 193.169 212.859 179.474 199.459 168.293Z" fill="#FED340"/>
<path opacity="0.8" d="M193.056 163.273L-2.23426 204.388C-8.77125 215.771 -13.597 228.055 -16.5564 240.844V240.844L220.861 190.86C212.997 180.35 203.628 171.055 193.056 163.273" fill="#ED6A66"/>
<path opacity="0.8" d="M231.089 206.758L-6.62799 212.703C-11.8076 223.4 -15.5386 234.739 -17.7224 246.421V246.421L243.855 239.879C241.09 228.321 236.797 217.182 231.089 206.758" fill="#8AACA6"/>
<path opacity="0.8" d="M242.513 234.725L-17.2863 244.193C-19.5418 255.219 -20.3967 266.486 -19.8308 277.727V277.727L247.492 267.984C247.238 256.732 245.565 245.558 242.513 234.725" fill="#8AACA6"/>
<path opacity="0.8" d="M247.426 276.172L-19.7051 262.123C-20.4515 273.345 -19.7796 284.615 -17.7056 295.669V295.669L241.918 309.323C245.141 298.548 246.991 287.41 247.426 276.172Z" fill="#FED340"/>
<path opacity="0.8" d="M247.282 279.068L-11.6697 317.467C-7.59047 328.478 -2.07907 338.905 4.72242 348.477V348.477L240.594 313.501C244.325 302.367 246.574 290.79 247.282 279.068" fill="#ED6A66"/>
<path opacity="0.8" d="M244.792 297.903L8.30835 353.291C16.3251 363.565 25.8001 372.611 36.4329 380.145V380.145L231.518 334.453C237.699 322.982 242.171 310.668 244.792 297.903" fill="#ED6A66"/>
<path d="M510.446 -16V85.0411Z" fill="black"/>
<path d="M510.446 -16V85.0411" stroke="white" stroke-width="4" stroke-linecap="round" stroke-dasharray="0.01 10"/>
<path d="M524.959 90.3733C524.503 86.6296 522.693 83.1823 519.87 80.6819C517.046 78.1816 513.405 76.8011 509.634 76.8011C505.862 76.8011 502.221 78.1816 499.398 80.6819C496.575 83.1823 494.764 86.6296 494.308 90.3733C504.453 88.6594 514.814 88.6594 524.959 90.3733" fill="#ED6A66"/>
<path opacity="0.8" d="M538.122 96.8557L443.154 120.49C455.199 108.078 470.478 99.2854 487.262 95.1083C504.046 90.9313 521.664 91.5366 538.122 96.8557Z" fill="#ED6A66"/>
<path opacity="0.8" d="M531.14 94.8973L441.957 121.748C434.158 130.092 427.969 139.807 423.704 150.402L562.179 108.711C552.773 102.232 542.249 97.549 531.14 94.8973" fill="#861F16"/>
<path opacity="0.8" d="M568.486 113.464L432.956 133.024C427.769 140.676 423.757 149.061 421.052 157.9V157.9L586.937 133.959C581.844 126.245 575.624 119.337 568.486 113.464" fill="#8AACA6"/>
<path opacity="0.8" d="M600.047 164.838L438.96 125.115C433.812 131.19 429.47 137.903 426.039 145.088V145.088L602.2 188.527C602.503 180.571 601.779 172.609 600.047 164.838" fill="#ED6A66"/>
<path opacity="0.8" d="M594.998 149.028L417.236 178.39C416.687 186.064 417.096 193.775 418.454 201.348V201.348L601.227 171.157C600.078 163.551 597.985 156.117 594.998 149.028" fill="#ED6A66"/>
<path opacity="0.8" d="M599.241 161.514L419.426 206.061C421.146 213.429 423.763 220.558 427.217 227.29V227.29L602.261 183.925C602.173 176.359 601.159 168.833 599.241 161.514" fill="#8AACA6"/>
<path opacity="0.8" d="M600.436 203.329L419.244 205.264C421.045 213.298 423.909 221.055 427.76 228.332V228.332L592.415 226.573C596.11 219.216 598.807 211.399 600.436 203.329Z" fill="#8AACA6"/>
<path opacity="0.8" d="M595.236 220.402L428.197 229.148C432.661 237.383 438.349 244.894 445.066 251.423V251.423L580.785 244.317C586.784 237.122 591.656 229.058 595.236 220.402" fill="#FED340"/>
<path opacity="0.8" d="M562.298 261.207L423.792 219.818C428.092 230.418 434.318 240.131 442.155 248.464V248.464L531.23 275.081C542.354 272.414 552.888 267.71 562.298 261.207" fill="#861F16"/>
<path opacity="0.8" d="M549.359 268.683L459.228 262.719C472.493 271.323 487.74 276.388 503.517 277.432C519.294 278.476 535.075 275.464 549.359 268.683" fill="#FED340"/>
<path d="M299.514 -96V109.05Z" fill="black"/>
<path d="M299.514 -96V109.05" stroke="white" stroke-width="4" stroke-linecap="round" stroke-dasharray="0.01 10"/>
<path d="M302.825 116.413C302.651 115.661 302.227 114.99 301.622 114.509C301.018 114.029 300.268 113.767 299.496 113.767C298.724 113.767 297.974 114.029 297.37 114.509C296.765 114.99 296.341 115.661 296.167 116.413C298.371 116.041 300.621 116.041 302.825 116.413Z" fill="#ED6A66"/>
<path opacity="0.8" d="M305.049 117.262L283.433 124.256C285.946 121.089 289.338 118.736 293.184 117.492C297.03 116.247 301.158 116.167 305.049 117.262" fill="#ED6A66"/>
<path opacity="0.8" d="M304.277 117.061L284.561 122.951C282.826 124.796 281.448 126.945 280.496 129.292V129.292L311.154 120.132C309.071 118.693 306.739 117.651 304.277 117.061" fill="#FED340"/>
<path opacity="0.8" d="M317.803 127.765L287.936 120.065C286.299 121.183 284.833 122.531 283.583 124.069V124.069L319.677 133.374C319.327 131.424 318.695 129.535 317.803 127.765" fill="#8AACA6"/>
<path opacity="0.8" d="M318.974 130.595L282.839 125.043C281.79 126.504 280.938 128.097 280.305 129.78V129.78L319.969 135.874C319.871 134.078 319.536 132.303 318.974 130.595" fill="#ED6A66"/>
<path opacity="0.8" d="M319.993 136.457L280.944 128.268C280.225 129.796 279.697 131.407 279.373 133.065V133.065L319.505 141.481C319.874 139.833 320.038 138.146 319.993 136.457" fill="#ED6A66"/>
<path opacity="0.8" d="M319.387 141.976L279.746 131.491C279.298 133.098 279.047 134.753 279 136.42V136.42L317.598 146.629C318.382 145.157 318.982 143.594 319.387 141.976" fill="#8AACA6"/>
<path opacity="0.8" d="M319.999 137.19L280.629 145.028C281.327 146.668 282.235 148.21 283.332 149.616V149.616L319.259 142.464C319.734 140.745 319.983 138.973 319.999 137.19" fill="#ED6A66"/>
<path opacity="0.8" d="M315.938 149.251L279.531 141.673C279.99 143.633 280.735 145.516 281.743 147.259V147.259L311.681 153.491C313.301 152.294 314.735 150.865 315.938 149.251" fill="#861F16"/>
<path opacity="0.8" d="M317.77 146.3L286.921 153.195C289.019 154.824 291.413 156.03 293.971 156.746V156.746L312.902 152.514C314.912 150.778 316.565 148.667 317.77 146.3" fill="#8AACA6"/>
<path opacity="0.8" d="M312.275 153.035L291.953 156.066C295.308 157.394 298.953 157.812 302.521 157.28C306.089 156.748 309.454 155.283 312.275 153.035" fill="#861F16"/>
</g>
<defs>
<clipPath id="clip0">
<rect width="640" height="320" fill="white"/>
</clipPath>
</defs>
</svg>
